{
    "asset" : {
        "generator" : "Khronos glTF Blender I/O v1.1.45",
        "version" : "2.0"
    },
    "scene" : 0,
    "scenes" : [
        {
            "name" : "Scene",
            "nodes" : [
                0
            ]
        }
    ],
    "nodes" : [
        {
            "mesh" : 0,
            "name" : "bench"
        }
    ],
    "materials" : [
        {
            "doubleSided" : true,
            "emissiveFactor" : [
                0.12258674204349518,
                0.05894463136792183,
                0.03824359551072121
            ],
            "name" : "bench.material",
            "pbrMetallicRoughness" : {
                "baseColorFactor" : [
                    0.2228119820356369,
                    0.1362755000591278,
                    0.022643188014626503,
                    1
                ],
                "metallicFactor" : 0,
                "roughnessFactor" : 0.5
            }
        }
    ],
    "meshes" : [
        {
            "name" : "Cube.021",
            "primitives" : [
                {
                    "attributes" : {
                        "POSITION" : 0,
                        "NORMAL" : 1,
                        "TEXCOORD_0" : 2
                    },
                    "indices" : 3,
                    "material" : 0
                }
            ]
        }
    ],
    "accessors" : [
        {
            "bufferView" : 0,
            "componentType" : 5126,
            "count" : 706,
            "max" : [
                2.1054186820983887,
                5.854215621948242,
                -0.7908901572227478
            ],
            "min" : [
                -1.8945814371109009,
                2.55466890335083,
                -2.215219020843506
            ],
            "type" : "VEC3"
        },
        {
            "bufferView" : 1,
            "componentType" : 5126,
            "count" : 706,
            "type" : "VEC3"
        },
        {
            "bufferView" : 2,
            "componentType" : 5126,
            "count" : 706,
            "type" : "VEC2"
        },
        {
            "bufferView" : 3,
            "componentType" : 5123,
            "count" : 1188,
            "type" : "SCALAR"
        }
    ],
    "bufferViews" : [
        {
            "buffer" : 0,
            "byteLength" : 8472,
            "byteOffset" : 0
        },
        {
            "buffer" : 0,
            "byteLength" : 8472,
            "byteOffset" : 8472
        },
        {
            "buffer" : 0,
            "byteLength" : 5648,
            "byteOffset" : 16944
        },
        {
            "buffer" : 0,
            "byteLength" : 2376,
            "byteOffset" : 22592
        }
    ],
    "buffers" : [
        {
            "byteLength" : 24968,
            "uri" : "data:application/octet-stream;base64,"
        }
    ]
}
