{
    "asset" : {
        "generator" : "Khronos glTF Blender I/O v1.1.45",
        "version" : "2.0"
    },
    "scene" : 0,
    "scenes" : [
        {
            "name" : "Scene",
            "nodes" : [
                0
            ]
        }
    ],
    "nodes" : [
        {
            "mesh" : 0,
            "name" : "mrbiggs"
        }
    ],
    "materials" : [
        {
            "doubleSided" : true,
            "emissiveFactor" : [
                0,
                0,
                0
            ],
            "name" : "mrbiggs.material",
            "pbrMetallicRoughness" : {
                "baseColorTexture" : {
                    "index" : 0,
                    "texCoord" : 0
                },
                "metallicFactor" : 0,
                "roughnessFactor" : 0.5
            }
        }
    ],
    "meshes" : [
        {
            "name" : "Cube.020",
            "primitives" : [
                {
                    "attributes" : {
                        "POSITION" : 0,
                        "NORMAL" : 1,
                        "TEXCOORD_0" : 2,
                        "COLOR_0" : 3
                    },
                    "indices" : 4,
                    "material" : 0
                }
            ]
        }
    ],
    "textures" : [
        {
            "source" : 0
        }
    ],
    "images" : [
        {
            "bufferView" : 5,
            "mimeType" : "image/png",
            "name" : "mrbiggs"
        }
    ],
    "accessors" : [
        {
            "bufferView" : 0,
            "componentType" : 5126,
            "count" : 3644,
            "max" : [
                1.1439805030822754,
                8.784452438354492,
                0.7515649199485779
            ],
            "min" : [
                -1.3043407201766968,
                2.430196762084961,
                -2.1290502548217773
            ],
            "type" : "VEC3"
        },
        {
            "bufferView" : 1,
            "componentType" : 5126,
            "count" : 3644,
            "type" : "VEC3"
        },
        {
            "bufferView" : 2,
            "componentType" : 5126,
            "count" : 3644,
            "type" : "VEC2"
        },
        {
            "bufferView" : 3,
            "componentType" : 5126,
            "count" : 3644,
            "type" : "VEC4"
        },
        {
            "bufferView" : 4,
            "componentType" : 5123,
            "count" : 5466,
            "type" : "SCALAR"
        }
    ],
    "bufferViews" : [
        {
            "buffer" : 0,
            "byteLength" : 43728,
            "byteOffset" : 0
        },
        {
            "buffer" : 0,
            "byteLength" : 43728,
            "byteOffset" : 43728
        },
        {
            "buffer" : 0,
            "byteLength" : 29152,
            "byteOffset" : 87456
        },
        {
            "buffer" : 0,
            "byteLength" : 58304,
            "byteOffset" : 116608
        },
        {
            "buffer" : 0,
            "byteLength" : 10932,
            "byteOffset" : 174912
        },
        {
            "buffer" : 0,
            "byteLength" : 36669,
            "byteOffset" : 185844
        }
    ],
    "buffers" : [
        {
            "byteLength" : 222516,
            "uri" : "data:application/octet-stream;base64,"
        }
    ]
}
