{
    "asset" : {
        "generator" : "Khronos glTF Blender I/O v1.1.45",
        "version" : "2.0"
    },
    "scene" : 0,
    "scenes" : [
        {
            "name" : "Scene",
            "nodes" : [
                0
            ]
        }
    ],
    "nodes" : [
        {
            "mesh" : 0,
            "name" : "Cube"
        }
    ],
    "meshes" : [
        {
            "name" : "Cube.018",
            "primitives" : [
                {
                    "attributes" : {
                        "POSITION" : 0,
                        "NORMAL" : 1,
                        "TEXCOORD_0" : 2
                    },
                    "indices" : 3
                }
            ]
        }
    ],
    "accessors" : [
        {
            "bufferView" : 0,
            "componentType" : 5126,
            "count" : 1782,
            "max" : [
                1.915334701538086,
                0.5431910753250122,
                1.915334701538086
            ],
            "min" : [
                -1.915334701538086,
                -1.7169113159179688,
                -1.9082646369934082
            ],
            "type" : "VEC3"
        },
        {
            "bufferView" : 1,
            "componentType" : 5126,
            "count" : 1782,
            "type" : "VEC3"
        },
        {
            "bufferView" : 2,
            "componentType" : 5126,
            "count" : 1782,
            "type" : "VEC2"
        },
        {
            "bufferView" : 3,
            "componentType" : 5123,
            "count" : 2880,
            "type" : "SCALAR"
        }
    ],
    "bufferViews" : [
        {
            "buffer" : 0,
            "byteLength" : 21384,
            "byteOffset" : 0
        },
        {
            "buffer" : 0,
            "byteLength" : 21384,
            "byteOffset" : 21384
        },
        {
            "buffer" : 0,
            "byteLength" : 14256,
            "byteOffset" : 42768
        },
        {
            "buffer" : 0,
            "byteLength" : 5760,
            "byteOffset" : 57024
        }
    ],
    "buffers" : [
        {
            "byteLength" : 62784,
            "uri" : "data:application/octet-stream;base64,"
        }
    ]
}
