{
    "asset" : {
        "generator" : "Khronos glTF Blender I/O v1.1.45",
        "version" : "2.0"
    },
    "scene" : 0,
    "scenes" : [
        {
            "name" : "Scene",
            "nodes" : [
                0
            ]
        }
    ],
    "nodes" : [
        {
            "mesh" : 0,
            "name" : "Cube"
        }
    ],
    "materials" : [
        {
            "doubleSided" : true,
            "emissiveFactor" : [
                0,
                0,
                0
            ],
            "name" : "robot.material",
            "pbrMetallicRoughness" : {
                "baseColorTexture" : {
                    "index" : 0,
                    "texCoord" : 0
                },
                "metallicFactor" : 0,
                "roughnessFactor" : 0.5
            }
        }
    ],
    "meshes" : [
        {
            "name" : "Cube.018",
            "primitives" : [
                {
                    "attributes" : {
                        "POSITION" : 0,
                        "NORMAL" : 1,
                        "TEXCOORD_0" : 2
                    },
                    "indices" : 3,
                    "material" : 0
                }
            ]
        }
    ],
    "textures" : [
        {
            "source" : 0
        }
    ],
    "images" : [
        {
            "bufferView" : 4,
            "mimeType" : "image/png",
            "name" : "robot"
        }
    ],
    "accessors" : [
        {
            "bufferView" : 0,
            "componentType" : 5126,
            "count" : 1760,
            "max" : [
                1.915334701538086,
                0.5431910753250122,
                1.915334701538086
            ],
            "min" : [
                -1.915334701538086,
                -1.7169113159179688,
                -1.9082646369934082
            ],
            "type" : "VEC3"
        },
        {
            "bufferView" : 1,
            "componentType" : 5126,
            "count" : 1760,
            "type" : "VEC3"
        },
        {
            "bufferView" : 2,
            "componentType" : 5126,
            "count" : 1760,
            "type" : "VEC2"
        },
        {
            "bufferView" : 3,
            "componentType" : 5123,
            "count" : 2880,
            "type" : "SCALAR"
        }
    ],
    "bufferViews" : [
        {
            "buffer" : 0,
            "byteLength" : 21120,
            "byteOffset" : 0
        },
        {
            "buffer" : 0,
            "byteLength" : 21120,
            "byteOffset" : 21120
        },
        {
            "buffer" : 0,
            "byteLength" : 14080,
            "byteOffset" : 42240
        },
        {
            "buffer" : 0,
            "byteLength" : 5760,
            "byteOffset" : 56320
        },
        {
            "buffer" : 0,
            "byteLength" : 30402,
            "byteOffset" : 62080
        }
    ],
    "buffers" : [
        {
            "byteLength" : 92484,
            "uri" : "data:application/octet-stream;base64,"
        }
    ]
}
