{
    "asset" : {
        "generator" : "Khronos glTF Blender I/O v1.1.45",
        "version" : "2.0"
    },
    "scene" : 0,
    "scenes" : [
        {
            "name" : "Scene",
            "nodes" : [
                0
            ]
        }
    ],
    "nodes" : [
        {
            "mesh" : 0,
            "name" : "target.blue"
        }
    ],
    "materials" : [
        {
            "doubleSided" : true,
            "emissiveFactor" : [
                0,
                0,
                0
            ],
            "name" : "target.blue.material",
            "pbrMetallicRoughness" : {
                "baseColorTexture" : {
                    "index" : 0,
                    "texCoord" : 0
                },
                "metallicFactor" : 0,
                "roughnessFactor" : 0.5
            }
        }
    ],
    "meshes" : [
        {
            "name" : "Circle.001",
            "primitives" : [
                {
                    "attributes" : {
                        "POSITION" : 0,
                        "NORMAL" : 1,
                        "TEXCOORD_0" : 2
                    },
                    "indices" : 3,
                    "material" : 0
                }
            ]
        }
    ],
    "textures" : [
        {
            "source" : 0
        }
    ],
    "images" : [
        {
            "bufferView" : 4,
            "mimeType" : "image/png",
            "name" : "target"
        }
    ],
    "accessors" : [
        {
            "bufferView" : 0,
            "componentType" : 5126,
            "count" : 512,
            "max" : [
                -5.916363716125488,
                0.16803404688835144,
                8.375652313232422
            ],
            "min" : [
                -7.916363716125488,
                -0.22893397510051727,
                6.375652313232422
            ],
            "type" : "VEC3"
        },
        {
            "bufferView" : 1,
            "componentType" : 5126,
            "count" : 512,
            "type" : "VEC3"
        },
        {
            "bufferView" : 2,
            "componentType" : 5126,
            "count" : 512,
            "type" : "VEC2"
        },
        {
            "bufferView" : 3,
            "componentType" : 5123,
            "count" : 768,
            "type" : "SCALAR"
        }
    ],
    "bufferViews" : [
        {
            "buffer" : 0,
            "byteLength" : 6144,
            "byteOffset" : 0
        },
        {
            "buffer" : 0,
            "byteLength" : 6144,
            "byteOffset" : 6144
        },
        {
            "buffer" : 0,
            "byteLength" : 4096,
            "byteOffset" : 12288
        },
        {
            "buffer" : 0,
            "byteLength" : 1536,
            "byteOffset" : 16384
        },
        {
            "buffer" : 0,
            "byteLength" : 251,
            "byteOffset" : 17920
        }
    ],
    "buffers" : [
        {
            "byteLength" : 18172,
            "uri" : "data:application/octet-stream;base64,"
        }
    ]
}
