{
    "asset" : {
        "generator" : "Khronos glTF Blender I/O v1.1.45",
        "version" : "2.0"
    },
    "scene" : 0,
    "scenes" : [
        {
            "name" : "Scene",
            "nodes" : [
                0
            ]
        }
    ],
    "nodes" : [
        {
            "mesh" : 0,
            "name" : "wheel.rear.right",
            "translation" : [
                0,
                0.4130053222179413,
                0
            ]
        }
    ],
    "materials" : [
        {
            "doubleSided" : true,
            "emissiveFactor" : [
                0,
                0,
                0
            ],
            "name" : "wheel.material",
            "pbrMetallicRoughness" : {
                "baseColorTexture" : {
                    "index" : 0,
                    "texCoord" : 0
                },
                "metallicFactor" : 0,
                "roughnessFactor" : 0.5
            }
        }
    ],
    "meshes" : [
        {
            "name" : "Cylinder.004",
            "primitives" : [
                {
                    "attributes" : {
                        "POSITION" : 0,
                        "NORMAL" : 1,
                        "TEXCOORD_0" : 2
                    },
                    "indices" : 3,
                    "material" : 0
                }
            ]
        }
    ],
    "textures" : [
        {
            "source" : 0
        }
    ],
    "images" : [
        {
            "bufferView" : 4,
            "mimeType" : "image/png",
            "name" : "wheel"
        }
    ],
    "accessors" : [
        {
            "bufferView" : 0,
            "componentType" : 5126,
            "count" : 1754,
            "max" : [
                -0.47785741090774536,
                0.3750847578048706,
                -0.866071343421936
            ],
            "min" : [
                -0.8886758685112,
                -0.4086722135543823,
                -1.649828314781189
            ],
            "type" : "VEC3"
        },
        {
            "bufferView" : 1,
            "componentType" : 5126,
            "count" : 1754,
            "type" : "VEC3"
        },
        {
            "bufferView" : 2,
            "componentType" : 5126,
            "count" : 1754,
            "type" : "VEC2"
        },
        {
            "bufferView" : 3,
            "componentType" : 5123,
            "count" : 3060,
            "type" : "SCALAR"
        }
    ],
    "bufferViews" : [
        {
            "buffer" : 0,
            "byteLength" : 21048,
            "byteOffset" : 0
        },
        {
            "buffer" : 0,
            "byteLength" : 21048,
            "byteOffset" : 21048
        },
        {
            "buffer" : 0,
            "byteLength" : 14032,
            "byteOffset" : 42096
        },
        {
            "buffer" : 0,
            "byteLength" : 6120,
            "byteOffset" : 56128
        },
        {
            "buffer" : 0,
            "byteLength" : 550,
            "byteOffset" : 62248
        }
    ],
    "buffers" : [
        {
            "byteLength" : 62800,
            "uri" : "data:application/octet-stream;base64,"
        }
    ]
}
